<svg width="18" height="17" viewBox="0 0 18 17" fill="none" xmlns="http://www.w3.org/2000/svg">
<rect x="0.473999" y="0.212952" width="16.7064" height="16.7064" rx="1" fill="#CC7947"/>
<g clip-path="url(#clip0_449_1589)">
<path d="M13.4111 7.44365H9.88705V3.91965C9.88705 3.48722 9.53636 3.13654 9.10393 3.13654H8.32082C7.8884 3.13654 7.53771 3.48722 7.53771 3.91965V7.44365H4.0137C3.58128 7.44365 3.23059 7.79434 3.23059 8.22677V9.00988C3.23059 9.4423 3.58128 9.79299 4.0137 9.79299H7.53771V13.317C7.53771 13.7494 7.8884 14.1001 8.32082 14.1001H9.10393C9.53636 14.1001 9.88705 13.7494 9.88705 13.317V9.79299H13.4111C13.8435 9.79299 14.1942 9.4423 14.1942 9.00988V8.22677C14.1942 7.79434 13.8435 7.44365 13.4111 7.44365Z" fill="white"/>
</g>
<defs>
<clipPath id="clip0_449_1589">
<rect width="12.5298" height="12.5298" fill="white" transform="translate(2.47876 2.38477)"/>
</clipPath>
</defs>
</svg>
