<svg width="75" height="26" viewBox="0 0 75 26" fill="none" xmlns="http://www.w3.org/2000/svg">
<path d="M30.8047 13.2031V16.1406C30.8047 16.7135 30.8385 17.0755 30.9062 17.2266C30.9792 17.3724 31.1042 17.4896 31.2812 17.5781C31.4635 17.6667 31.7943 17.7109 32.2734 17.7109V18H26.8906V17.7109C27.3802 17.7109 27.7109 17.6667 27.8828 17.5781C28.0599 17.4844 28.1823 17.3646 28.25 17.2188C28.3229 17.0729 28.3594 16.7135 28.3594 16.1406V9.26562C28.3594 8.69271 28.3229 8.33333 28.25 8.1875C28.1823 8.03646 28.0599 7.91667 27.8828 7.82812C27.7057 7.73958 27.375 7.69531 26.8906 7.69531V7.40625H31.5078C33.0286 7.40625 34.1198 7.67708 34.7812 8.21875C35.4427 8.76042 35.7734 9.4375 35.7734 10.25C35.7734 10.9375 35.5599 11.526 35.1328 12.0156C34.7057 12.5052 34.1172 12.8385 33.3672 13.0156C32.862 13.1406 32.0078 13.2031 30.8047 13.2031ZM30.8047 8.01562V12.5938C30.9766 12.6042 31.1068 12.6094 31.1953 12.6094C31.8307 12.6094 32.3203 12.4219 32.6641 12.0469C33.0078 11.6667 33.1797 11.0807 33.1797 10.2891C33.1797 9.5026 33.0078 8.92708 32.6641 8.5625C32.3203 8.19792 31.8073 8.01562 31.125 8.01562H30.8047ZM39.8359 10.6953V12.3516C40.3203 11.5964 40.7448 11.0964 41.1094 10.8516C41.474 10.6016 41.8255 10.4766 42.1641 10.4766C42.4557 10.4766 42.6875 10.5677 42.8594 10.75C43.0365 10.9271 43.125 11.1797 43.125 11.5078C43.125 11.8568 43.0391 12.1276 42.8672 12.3203C42.7005 12.513 42.4974 12.6094 42.2578 12.6094C41.9818 12.6094 41.7422 12.5208 41.5391 12.3438C41.3359 12.1667 41.2161 12.0677 41.1797 12.0469C41.1276 12.0156 41.0677 12 41 12C40.849 12 40.7057 12.0573 40.5703 12.1719C40.3568 12.349 40.1953 12.6016 40.0859 12.9297C39.9193 13.4349 39.8359 13.9922 39.8359 14.6016V16.2812L39.8438 16.7188C39.8438 17.0156 39.862 17.2057 39.8984 17.2891C39.9609 17.4297 40.0521 17.5339 40.1719 17.6016C40.2969 17.6641 40.5052 17.7031 40.7969 17.7188V18H36.8516V17.7188C37.1693 17.6927 37.3828 17.6068 37.4922 17.4609C37.6068 17.3099 37.6641 16.9167 37.6641 16.2812V12.2422C37.6641 11.8255 37.6432 11.5599 37.6016 11.4453C37.5495 11.2995 37.474 11.1927 37.375 11.125C37.276 11.0573 37.1016 11.0104 36.8516 10.9844V10.6953H39.8359ZM45.6719 7.15625C46.0104 7.15625 46.2969 7.27604 46.5312 7.51562C46.7656 7.75 46.8828 8.03385 46.8828 8.36719C46.8828 8.70052 46.763 8.98438 46.5234 9.21875C46.2891 9.45312 46.0052 9.57031 45.6719 9.57031C45.3385 9.57031 45.0547 9.45312 44.8203 9.21875C44.5859 8.98438 44.4688 8.70052 44.4688 8.36719C44.4688 8.03385 44.5859 7.75 44.8203 7.51562C45.0547 7.27604 45.3385 7.15625 45.6719 7.15625ZM46.7656 10.6953V16.4844C46.7656 17 46.8255 17.3307 46.9453 17.4766C47.0651 17.6172 47.2995 17.6979 47.6484 17.7188V18H43.7031V17.7188C44.026 17.7083 44.2656 17.6146 44.4219 17.4375C44.526 17.3177 44.5781 17 44.5781 16.4844V12.2188C44.5781 11.7031 44.5182 11.375 44.3984 11.2344C44.2786 11.0885 44.0469 11.0052 43.7031 10.9844V10.6953H46.7656ZM51.3516 10.6953V11.6406C51.7266 11.2344 52.0859 10.9401 52.4297 10.7578C52.7734 10.5703 53.1432 10.4766 53.5391 10.4766C54.013 10.4766 54.4062 10.6094 54.7188 10.875C55.0312 11.1354 55.2396 11.4609 55.3438 11.8516C55.4271 12.1484 55.4688 12.7188 55.4688 13.5625V16.4062C55.4688 16.9688 55.5182 17.3203 55.6172 17.4609C55.7214 17.5964 55.9349 17.6823 56.2578 17.7188V18H52.5625V17.7188C52.8385 17.6823 53.0365 17.5677 53.1562 17.375C53.2396 17.2448 53.2812 16.9219 53.2812 16.4062V13.1562C53.2812 12.5573 53.2578 12.1797 53.2109 12.0234C53.1641 11.8672 53.0833 11.7474 52.9688 11.6641C52.8594 11.5755 52.737 11.5312 52.6016 11.5312C52.1536 11.5312 51.737 11.8516 51.3516 12.4922V16.4062C51.3516 16.9531 51.401 17.2995 51.5 17.4453C51.6042 17.5911 51.7943 17.6823 52.0703 17.7188V18H48.375V17.7188C48.6823 17.6875 48.901 17.5885 49.0312 17.4219C49.1198 17.3073 49.1641 16.9688 49.1641 16.4062V12.2812C49.1641 11.7292 49.112 11.3854 49.0078 11.25C48.9089 11.1146 48.6979 11.026 48.375 10.9844V10.6953H51.3516ZM60.1719 8.02344V10.6953H61.9062V11.4688H60.1719V15.9766C60.1719 16.3984 60.1901 16.6719 60.2266 16.7969C60.2682 16.9167 60.3385 17.0156 60.4375 17.0938C60.5365 17.1667 60.6276 17.2031 60.7109 17.2031C61.0495 17.2031 61.3698 16.9453 61.6719 16.4297L61.9062 16.6016C61.4844 17.6016 60.7995 18.1016 59.8516 18.1016C59.388 18.1016 58.9948 17.974 58.6719 17.7188C58.3542 17.4583 58.151 17.1693 58.0625 16.8516C58.0104 16.6745 57.9844 16.1953 57.9844 15.4141V11.4688H57.0312V11.1953C57.6875 10.7318 58.2448 10.2448 58.7031 9.73438C59.1667 9.22396 59.5703 8.65365 59.9141 8.02344H60.1719ZM65.4609 7.40625V16.4844C65.4609 17 65.5208 17.3307 65.6406 17.4766C65.7604 17.6172 65.9948 17.6979 66.3438 17.7188V18H62.3984V17.7188C62.7214 17.7083 62.9609 17.6146 63.1172 17.4375C63.2214 17.3177 63.2734 17 63.2734 16.4844V8.92188C63.2734 8.41146 63.2135 8.08594 63.0938 7.94531C62.974 7.79948 62.7422 7.71615 62.3984 7.69531V7.40625H65.4609ZM70.4062 18.2969L68.0469 12.8828C67.6927 12.0651 67.4297 11.5625 67.2578 11.375C67.0911 11.1875 66.888 11.0573 66.6484 10.9844V10.6953H70.5312V10.9844C70.276 10.9948 70.0964 11.0443 69.9922 11.1328C69.888 11.2214 69.8359 11.3281 69.8359 11.4531C69.8359 11.651 69.9661 12.0417 70.2266 12.625L71.4766 15.4844L72.3281 13.2734C72.6354 12.487 72.7891 11.9401 72.7891 11.6328C72.7891 11.4401 72.724 11.2865 72.5938 11.1719C72.4688 11.0573 72.2448 10.9948 71.9219 10.9844V10.6953H74.3672V10.9844C74.1276 11.0104 73.9323 11.1042 73.7812 11.2656C73.6302 11.4219 73.3776 11.9609 73.0234 12.8828L70.9375 18.2969C70.4115 19.651 70.0208 20.4844 69.7656 20.7969C69.4062 21.2344 68.9557 21.4531 68.4141 21.4531C67.9818 21.4531 67.6302 21.3281 67.3594 21.0781C67.0938 20.8333 66.9609 20.5365 66.9609 20.1875C66.9609 19.8854 67.0521 19.6354 67.2344 19.4375C67.4219 19.2396 67.651 19.1406 67.9219 19.1406C68.1823 19.1406 68.3906 19.224 68.5469 19.3906C68.7083 19.5573 68.7917 19.8151 68.7969 20.1641C68.8021 20.362 68.8255 20.4896 68.8672 20.5469C68.9089 20.6042 68.9688 20.6328 69.0469 20.6328C69.1719 20.6328 69.3047 20.5573 69.4453 20.4062C69.6536 20.1875 69.8984 19.6875 70.1797 18.9062L70.4062 18.2969Z" fill="black"/>
<path d="M20.4812 11.1649H16.7908V5.82348C16.7908 5.68557 16.736 5.55331 16.6385 5.45579C16.541 5.35827 16.4087 5.30348 16.2708 5.30348H9.09168C8.95376 5.30348 8.8215 5.35827 8.72398 5.45579C8.62646 5.55331 8.57168 5.68557 8.57168 5.82348V11.1644H4.88124C4.74332 11.1644 4.61106 11.2192 4.51354 11.3167C4.41602 11.4142 4.36124 11.5465 4.36124 11.6844V18.434C4.36124 18.5719 4.41602 18.7042 4.51354 18.8017C4.61106 18.8992 4.74332 18.954 4.88124 18.954H8.46612V20.8078C8.46612 20.9457 8.5209 21.078 8.61842 21.1755C8.71594 21.273 8.8482 21.3278 8.98612 21.3278H16.1652C16.3032 21.3278 16.4354 21.273 16.5329 21.1755C16.6305 21.078 16.6852 20.9457 16.6852 20.8078V18.954H20.4818C20.6197 18.954 20.7519 18.8992 20.8495 18.8017C20.947 18.7042 21.0018 18.5719 21.0018 18.434V11.6849C21.0012 11.3974 20.7683 11.1649 20.4812 11.1649ZM9.61168 6.34348H15.7508V11.1644H9.61168V6.34348ZM15.6447 20.2883H9.5056V16.9972H15.6447V20.2883ZM19.9612 17.914H16.6847V16.4767C16.6847 16.3388 16.6299 16.2065 16.5324 16.109C16.4349 16.0115 16.3026 15.9567 16.1647 15.9567H8.9856C8.84768 15.9567 8.71542 16.0115 8.6179 16.109C8.52038 16.2065 8.4656 16.3388 8.4656 16.4767V17.914H5.40072V12.2049H8.9856C9.02096 12.2122 9.05372 12.2262 9.09116 12.2262H16.2708C16.3082 12.2262 16.3415 12.2122 16.3764 12.2049H19.9607V17.914H19.9612Z" fill="black"/>
</svg>
