<svg width="44" height="44" viewBox="0 0 44 44" fill="none" xmlns="http://www.w3.org/2000/svg">
<path d="M42.7452 31.092L33.12 26.9669C32.7089 26.7916 32.2519 26.7547 31.8179 26.8617C31.3839 26.9686 30.9964 27.2136 30.7137 27.5599L26.4512 32.7678C19.7615 29.6136 14.3778 24.2299 11.2236 17.5402L16.4315 13.2777C16.7785 12.9955 17.024 12.608 17.131 12.1738C17.238 11.7396 17.2006 11.2824 17.0245 10.8714L12.8994 1.2462C12.7062 0.803102 12.3644 0.44133 11.9329 0.223263C11.5015 0.00519514 11.0075 -0.0554998 10.5361 0.0516436L1.59847 2.11418C1.14399 2.21913 0.738513 2.47502 0.448202 2.84009C0.157892 3.20517 -0.000104692 3.65786 5.20464e-08 4.12429C5.20464e-08 26.1677 17.8667 44 39.8757 44C40.3423 44.0003 40.7952 43.8424 41.1604 43.5521C41.5257 43.2617 41.7817 42.8561 41.8867 42.4015L43.9492 33.4639C44.0557 32.9902 43.9937 32.4942 43.7739 32.0613C43.5542 31.6284 43.1904 31.2856 42.7452 31.092Z" fill="white"/>
</svg>
