<svg width="18" height="17" viewBox="0 0 18 17" fill="none" xmlns="http://www.w3.org/2000/svg">
<path d="M16.4812 6.16492H12.7908V0.823482C12.7908 0.685569 12.736 0.553305 12.6385 0.455786C12.541 0.358267 12.4087 0.303482 12.2708 0.303482H5.09168C4.95376 0.303482 4.8215 0.358267 4.72398 0.455786C4.62646 0.553305 4.57168 0.685569 4.57168 0.823482V6.1644H0.881237C0.743324 6.1644 0.61106 6.21919 0.513541 6.31671C0.416022 6.41423 0.361237 6.54649 0.361237 6.6844V13.434C0.361237 13.5719 0.416022 13.7042 0.513541 13.8017C0.61106 13.8992 0.743324 13.954 0.881237 13.954H4.46612V15.8078C4.46612 15.9457 4.5209 16.078 4.61842 16.1755C4.71594 16.273 4.8482 16.3278 4.98612 16.3278H12.1652C12.3032 16.3278 12.4354 16.273 12.5329 16.1755C12.6305 16.078 12.6852 15.9457 12.6852 15.8078V13.954H16.4818C16.6197 13.954 16.7519 13.8992 16.8495 13.8017C16.947 13.7042 17.0018 13.5719 17.0018 13.434V6.68492C17.0012 6.39736 16.7683 6.16492 16.4812 6.16492ZM5.61168 1.34348H11.7508V6.1644H5.61168V1.34348ZM11.6447 15.2883H5.5056V11.9972H11.6447V15.2883ZM15.9612 12.914H12.6847V11.4767C12.6847 11.3388 12.6299 11.2065 12.5324 11.109C12.4349 11.0115 12.3026 10.9567 12.1647 10.9567H4.9856C4.84768 10.9567 4.71542 11.0115 4.6179 11.109C4.52038 11.2065 4.4656 11.3388 4.4656 11.4767V12.914H1.40072V7.20492H4.9856C5.02096 7.2122 5.05372 7.22624 5.09116 7.22624H12.2708C12.3082 7.22624 12.3415 7.2122 12.3764 7.20492H15.9607V12.914H15.9612Z" fill="black"/>
</svg>
