<svg width="44" height="34" viewBox="0 0 44 34" fill="none" xmlns="http://www.w3.org/2000/svg">
<path d="M24.75 6.21828V4.625H26.125C26.8847 4.625 27.5 4.00969 27.5 3.25V1.875C27.5 1.11531 26.8847 0.5 26.125 0.5H17.875C17.1153 0.5 16.5 1.11531 16.5 1.875V3.25C16.5 4.00969 17.1153 4.625 17.875 4.625H19.25V6.21828C9.92492 7.55633 2.75 15.5545 2.75 25.25H41.25C41.25 15.5545 34.0751 7.55633 24.75 6.21828ZM42.625 28H1.375C0.615312 28 0 28.6153 0 29.375V32.125C0 32.8847 0.615312 33.5 1.375 33.5H42.625C43.3847 33.5 44 32.8847 44 32.125V29.375C44 28.6153 43.3847 28 42.625 28Z" fill="white"/>
</svg>
