<svg width="44" height="44" viewBox="0 0 44 44" fill="none" xmlns="http://www.w3.org/2000/svg">
<path d="M22 0.6875C10.2266 0.6875 0.6875 10.2266 0.6875 22C0.6875 33.7734 10.2266 43.3125 22 43.3125C33.7734 43.3125 43.3125 33.7734 43.3125 22C43.3125 10.2266 33.7734 0.6875 22 0.6875ZM22 8.9375C26.1766 8.9375 29.5625 12.3234 29.5625 16.5C29.5625 20.6766 26.1766 24.0625 22 24.0625C17.8234 24.0625 14.4375 20.6766 14.4375 16.5C14.4375 12.3234 17.8234 8.9375 22 8.9375ZM22 38.5C16.9555 38.5 12.4352 36.2141 9.41016 32.6391C11.0258 29.5969 14.1883 27.5 17.875 27.5C18.0812 27.5 18.2875 27.5344 18.4852 27.5945C19.6023 27.9555 20.7711 28.1875 22 28.1875C23.2289 28.1875 24.4062 27.9555 25.5148 27.5945C25.7125 27.5344 25.9188 27.5 26.125 27.5C29.8117 27.5 32.9742 29.5969 34.5898 32.6391C31.5648 36.2141 27.0445 38.5 22 38.5Z" fill="white"/>
</svg>
