<svg width="31" height="31" viewBox="0 0 31 31" fill="none" xmlns="http://www.w3.org/2000/svg">
<path d="M27.5312 0.1875H3.46875C1.65723 0.1875 0.1875 1.65723 0.1875 3.46875V27.5312C0.1875 29.3428 1.65723 30.8125 3.46875 30.8125H27.5312C29.3428 30.8125 30.8125 29.3428 30.8125 27.5312V3.46875C30.8125 1.65723 29.3428 0.1875 27.5312 0.1875ZM25.3438 17.4141C25.3438 17.8652 24.9746 18.2344 24.5234 18.2344H18.2344V24.5234C18.2344 24.9746 17.8652 25.3438 17.4141 25.3438H13.5859C13.1348 25.3438 12.7656 24.9746 12.7656 24.5234V18.2344H6.47656C6.02539 18.2344 5.65625 17.8652 5.65625 17.4141V13.5859C5.65625 13.1348 6.02539 12.7656 6.47656 12.7656H12.7656V6.47656C12.7656 6.02539 13.1348 5.65625 13.5859 5.65625H17.4141C17.8652 5.65625 18.2344 6.02539 18.2344 6.47656V12.7656H24.5234C24.9746 12.7656 25.3438 13.1348 25.3438 13.5859V17.4141Z" fill="white"/>
</svg>
